<svg id="Capa_1" enable-background="new 0 0 512 512" height="512" viewBox="0 0 512 512" width="512" xmlns="http://www.w3.org/2000/svg"><g><g><g><g><g><g><g><g><g><g><path d="m426.598 441.298c0-16.168 13.107-29.275 29.275-29.275h29.757v-285.903h-476.358l-9.272 16.124v325.906c0 16.168 13.107 29.275 29.275 29.275h381.206c6.03 0 11.81-2.372 16.116-6.585v-49.542z" fill="#f0f0f3"/><path d="m505.415 412.023c4.213-4.305 6.585-10.086 6.585-16.116v-253.663l-9.272-16.124h-26.112v285.902h28.799z" fill="#e0dde2"/><path d="m485.63 67.083-9.014-11.033h-447.341c-16.168 0-29.275 13.107-29.275 29.276v56.919h485.63z" fill="#fc8086"/><path d="m482.725 56.05h-6.108v86.194h35.383v-56.918c0-16.169-13.107-29.276-29.275-29.276z" fill="#fb636f"/></g><path d="m426.782 490.673 78.466-78.466c1.969-1.968 3.521-4.267 4.654-6.752h-60.596c-16.168 0-29.275 13.107-29.275 29.275v60.596c2.485-1.131 4.783-2.684 6.751-4.653z" fill="#fbd307"/></g></g><g fill="#e0dde2"><path d="m78.286 97.526c-12.532 0-22.691-10.159-22.691-22.691v-37.57c0-12.532 10.159-22.691 22.691-22.691 12.532 0 22.691 10.159 22.691 22.691v37.57c0 12.532-10.159 22.691-22.691 22.691z"/><path d="m167.143 97.526c-12.532 0-22.691-10.159-22.691-22.691v-37.57c0-12.532 10.159-22.691 22.691-22.691 12.532 0 22.691 10.159 22.691 22.691v37.57c0 12.532-10.159 22.691-22.691 22.691z"/><path d="m256 97.526c-12.532 0-22.691-10.159-22.691-22.691v-37.57c0-12.532 10.159-22.691 22.691-22.691 12.532 0 22.691 10.159 22.691 22.691v37.57c-.001 12.532-10.159 22.691-22.691 22.691z"/><path d="m344.857 97.526c-12.532 0-22.691-10.159-22.691-22.691v-37.57c0-12.532 10.159-22.691 22.691-22.691 12.532 0 22.691 10.159 22.691 22.691v37.57c-.001 12.532-10.16 22.691-22.691 22.691z"/><path d="m433.714 97.526c-12.532 0-22.691-10.159-22.691-22.691v-37.57c0-12.532 10.159-22.691 22.691-22.691 12.532 0 22.691 10.159 22.691 22.691v37.57c-.001 12.532-10.16 22.691-22.691 22.691z"/></g></g><path d="m435.667 361.5 8.923-9.954v-128.212c0-7.497-6.077-13.574-13.574-13.574h-54.136l-2.505 3.017h-10.25l-2.698-3.017h-59.983l-2.361 3.017h-11.083l-2.008-3.017h-59.984v3.017h-15.453v-3.017h-59.983v3.017h-15.452v-3.017h-54.136c-7.496 0-13.574 6.077-13.574 13.574v197.12c0 7.497 6.077 13.574 13.574 13.574h54.136l2.755-5.695h9.875l2.823 5.695h59.983l3.32-5.695h8.625l3.508 5.695h59.984l2.675-5.695h9.917l2.861 5.695h54.136c7.496 0 13.573-6.077 13.573-13.574v-53.456l4.513-5.498z" fill="#b2cbeb"/><path d="m444.59 292.243v-15.453h-67.71v-67.03h-15.453v67.03h-59.983v-67.03h-15.453v67.03h-59.984v-67.03h-15.453v67.03h-59.983v-67.03h-15.451v67.03h-26.951v15.453h26.951v59.303h-26.951v15.453h26.951v67.03h15.453v-67.03h59.983v67.03h15.453v-67.03h59.984v67.03h15.453v-67.03h67.709 63.377c6.66 0 12.059-5.399 12.059-12.059v-3.394h-67.71v-59.303zm-234.035 59.303h-59.983v-59.303h59.983zm75.437 0h-59.984v-59.303h59.984zm75.436 0h-59.983v-59.303h59.983z" fill="#e0dde2"/></g><g><path d="m86 349.424h107l4.827 1.507c14.914-19.014 23.817-42.967 23.817-69.008 0-49.571-32.224-91.605-76.865-106.324-1.301-.047-2.606-.079-3.919-.079-58.765 0-106.403 47.638-106.403 106.403 0 29.179 11.749 55.611 30.77 74.834z" fill="#7aabdc"/><path d="m211.531 281.924c0 25.634-9.084 49.134-24.183 67.501h5.652l23.492 7.333c19.021-19.223 30.77-45.655 30.77-74.834 0-58.765-47.638-106.403-106.403-106.403-6.089 0-12.056.519-17.866 1.501 50.258 8.498 88.538 52.226 88.538 104.902z" fill="#5f98d5"/><g><path d="m152.976 260.202c0-16.922-9.259-31.679-22.985-39.49-17.344 4.763-30.09 20.633-30.09 39.49 0 18.856 12.747 34.727 30.09 39.49 13.726-7.811 22.985-22.568 22.985-39.49z" fill="#ffdbcc"/><path d="m140.86 219.243c-6.316 0-12.296 1.432-17.638 3.985 13.792 6.591 23.321 20.669 23.321 36.974s-9.529 30.383-23.321 36.974c5.342 2.553 11.322 3.985 17.638 3.985 22.621 0 40.959-18.338 40.959-40.959-.001-22.621-18.339-40.959-40.959-40.959z" fill="#ffcbbe"/><path d="m159.904 301.16h-38.09c-30.926 0-56.044 24.801-56.588 55.598 19.286 19.49 46.047 31.569 75.633 31.569s56.347-12.078 75.633-31.569c-.544-30.796-25.662-55.598-56.588-55.598z" fill="#e6f1ff"/><path d="m189.17 355.384c-.47-26.561-19.225-48.648-44.214-54.224h-23.141c-30.926 0-56.044 24.801-56.588 55.598 19.286 19.49 46.047 31.569 75.633 31.569 13.691 0 26.775-2.59 38.795-7.302l9.515-10.025z" fill="#e5ecf6"/></g></g></g></g><g><path d="m179.655 356.758v24.267c13.955-5.469 26.477-13.796 36.838-24.267-.545-30.796-25.662-55.598-56.588-55.598h-36.838c30.925 0 56.043 24.802 56.588 55.598z" fill="#d4e2f1"/></g></g></g></g></svg>